<svg width="76" height="76" viewBox="0 0 76 76" fill="none" xmlns="http://www.w3.org/2000/svg">
<g clip-path="url(#clip0_21_80)">
<path d="M38.0946 75.5493C58.8889 75.5493 75.746 58.6922 75.746 37.8979C75.746 17.1036 58.8889 0.246521 38.0946 0.246521C17.3004 0.246521 0.443237 17.1036 0.443237 37.8979C0.443237 58.6922 17.3004 75.5493 38.0946 75.5493Z" fill="white"/>
<mask id="mask0_21_80" style="mask-type:alpha" maskUnits="userSpaceOnUse" x="12" y="24" width="54" height="33">
<path d="M19.3246 38.2068L14.5277 26.7727C14.1969 26.0008 13.8799 25.4632 13.5766 25.1599C13.2733 24.8429 12.8322 24.6568 12.2533 24.6017V24.1881C12.3085 24.1881 12.4187 24.1813 12.5841 24.1675C12.7357 24.1537 12.8598 24.1468 12.9563 24.1468C13.3009 24.1468 13.6868 24.2019 14.1142 24.3122C14.5415 24.4225 14.9688 24.6637 15.3961 25.0359C15.8372 25.4081 16.2232 25.987 16.554 26.7727L20.0897 35.1053L24.6385 24.3536H25.631L19.6968 38.2068H19.3246ZM29.8367 38.2068C28.8718 38.2068 28.0654 37.9794 27.4175 37.5245C26.7835 37.0696 26.301 36.4562 25.9702 35.6843C25.6532 34.9124 25.4946 34.0646 25.4946 33.1411C25.4946 32.2037 25.66 31.356 25.9909 30.5978C26.3217 29.8259 26.7972 29.2125 27.4175 28.7576C28.0378 28.3028 28.7753 28.0753 29.6299 28.0753C30.5673 28.0753 31.3392 28.2545 31.9457 28.6129C32.566 28.9575 33.0209 29.4675 33.3103 30.143C33.6136 30.8184 33.7652 31.6455 33.7652 32.6241L33.7239 33.4512H27.4589C27.4589 34.5815 27.7001 35.5188 28.1826 36.2632C28.6788 37.0076 29.368 37.3797 30.2502 37.3797C30.9257 37.3797 31.4839 37.235 31.925 36.9455C32.3799 36.6561 32.7865 36.2494 33.1449 35.7256L33.5584 36.0358C33.2552 36.5595 32.9106 36.98 32.5246 37.297C32.1524 37.614 31.7389 37.8484 31.284 38C30.843 38.1379 30.3605 38.2068 29.8367 38.2068ZM27.4589 32.6241H31.8009C31.8009 31.4249 31.6218 30.5083 31.2634 29.8742C30.905 29.2263 30.3605 28.9024 29.6299 28.9024C29.2164 28.9024 28.8442 29.0678 28.5134 29.3986C28.1964 29.7156 27.9414 30.1568 27.7484 30.7219C27.5554 31.2733 27.4589 31.9073 27.4589 32.6241ZM36.459 38V30.7633C36.459 30.143 36.3694 29.6467 36.1902 29.2746C36.0248 28.8886 35.6319 28.6956 35.0116 28.6956H34.5981V28.2821H36.459C36.9828 28.2821 37.3757 28.3579 37.6375 28.5095C37.9132 28.6474 38.1062 28.8472 38.2165 29.1091C38.4922 28.8748 38.8712 28.6474 39.3537 28.4268C39.8362 28.1925 40.3875 28.0753 41.0078 28.0753C41.6005 28.0753 42.1588 28.1787 42.6826 28.3855C43.2202 28.5922 43.6613 28.9644 44.0059 29.502C44.3505 30.0258 44.5228 30.7908 44.5228 31.7971V38H42.6619V31.7971C42.6619 31.1079 42.5516 30.5634 42.3311 30.1636C42.1106 29.7501 41.828 29.4538 41.4833 29.2746C41.1388 29.0953 40.7735 29.0058 40.3875 29.0058C39.974 29.0058 39.588 29.116 39.2296 29.3366C38.885 29.5572 38.5818 29.8121 38.3198 30.1016V38H36.459ZM50.9314 38.2068C50.3524 38.2068 49.7942 38.1034 49.2566 37.8966C48.719 37.6899 48.2779 37.3177 47.9333 36.7801C47.5887 36.2425 47.4164 35.4775 47.4164 34.485V30.7633C47.4164 30.143 47.3268 29.6467 47.1476 29.2746C46.9822 28.8886 46.5893 28.6956 45.969 28.6956H45.7623V28.2821H47.4164C47.8988 28.2821 48.271 28.3441 48.5329 28.4682C48.8086 28.5922 49.0016 28.8335 49.1118 29.1918C49.2221 29.5502 49.2773 30.0741 49.2773 30.7633V34.485C49.2773 35.1742 49.3875 35.7256 49.6081 36.1391C49.8286 36.5389 50.1112 36.8283 50.4558 37.0076C50.8142 37.1868 51.1795 37.2764 51.5517 37.2764C51.8273 37.2764 52.0893 37.2281 52.3374 37.1316C52.5855 37.0214 52.8198 36.8835 53.0404 36.7181C53.2609 36.5527 53.4539 36.3735 53.6193 36.1805V28.2821H55.4802V38H54.4464L53.7227 37.173H53.6193C53.3574 37.4349 52.999 37.6761 52.5441 37.8966C52.0893 38.1034 51.5517 38.2068 50.9314 38.2068ZM61.7069 38.2068C60.8799 38.2068 60.2048 38.1379 59.6806 38C59.157 37.8484 58.7642 37.6417 58.5021 37.3797C58.2406 37.1178 58.0886 36.8215 58.0472 36.4906C58.0059 36.1598 57.9852 35.7325 57.9852 35.2087H58.3987C58.5094 35.8842 58.7988 36.4148 59.2671 36.8008C59.736 37.1868 60.4116 37.3797 61.2934 37.3797C62.0791 37.3797 62.6514 37.2419 63.0096 36.9662C63.3817 36.6905 63.5678 36.3459 63.5678 35.9324C63.5678 35.5189 63.4097 35.1742 63.0923 34.8986C62.7894 34.6091 62.3272 34.3334 61.7069 34.0715L60.4664 33.5546C59.6806 33.2376 59.0676 32.8654 58.6261 32.4381C58.1992 31.997 57.9852 31.4387 57.9852 30.7633C57.9852 29.8948 58.3093 29.2332 58.957 28.7783C59.6052 28.3096 60.4183 28.0753 61.3968 28.0753C62.1825 28.0753 62.8307 28.1512 63.3404 28.3028C63.8506 28.4406 64.2367 28.6405 64.4983 28.9024C64.7604 29.1643 64.9118 29.4606 64.9531 29.7915C64.9945 30.1223 65.0152 30.5496 65.0152 31.0734H64.6016C64.4916 30.398 64.2021 29.8673 63.7332 29.4813C63.2784 29.0953 62.6374 28.9024 61.8103 28.9024C61.1353 28.9024 60.6184 29.0402 60.2596 29.3159C59.9154 29.5916 59.7427 29.9362 59.7427 30.3497C59.7427 30.7081 59.8874 31.0389 60.1769 31.3422C60.4664 31.6317 60.8732 31.8867 61.3968 32.1072L62.6374 32.6241C63.5198 32.9825 64.1881 33.3754 64.643 33.8027C65.0979 34.23 65.3253 34.802 65.3253 35.5188C65.3253 36.3873 64.9811 37.0558 64.2915 37.5245C63.6025 37.9794 62.7408 38.2068 61.7069 38.2068Z" fill="#9E721D"/>
<path d="M37.207 56.0891L32.41 44.655C32.0792 43.8831 31.7622 43.3455 31.4589 43.0423C31.1556 42.7252 30.7146 42.5392 30.1356 42.484V42.0705C30.1908 42.0705 30.301 42.0636 30.4664 42.0498C30.6181 42.036 30.7421 42.0291 30.8386 42.0291C31.1832 42.0291 31.5692 42.0843 31.9965 42.1945C32.4238 42.3048 32.8511 42.546 33.2784 42.9182C33.7195 43.2904 34.1055 43.8693 34.4363 44.655L37.972 52.9876L42.5208 42.2359H43.5133L37.5792 56.0891H37.207ZM45.7598 55.8823V48.6456C45.7598 48.0253 45.6702 47.5291 45.491 47.1569C45.3256 46.7709 44.9327 46.5779 44.3124 46.5779H43.8989V46.1644H45.7598C46.2422 46.1644 46.6144 46.2264 46.8763 46.3505C47.152 46.4746 47.345 46.7158 47.4552 47.0742C47.5655 47.4325 47.6207 47.9564 47.6207 48.6456V55.8823H45.7598ZM46.5455 44.9238C46.2285 44.9238 45.9527 44.7929 45.7184 44.531C45.4978 44.269 45.3876 43.9589 45.3876 43.6005C45.3876 43.3111 45.4703 43.0836 45.6357 42.9182C45.8149 42.7528 46.0492 42.6701 46.3387 42.6701C46.6557 42.6701 46.9245 42.801 47.1451 43.0629C47.3794 43.3249 47.4966 43.635 47.4966 43.9934C47.4966 44.2828 47.407 44.5103 47.2278 44.6757C47.0624 44.8411 46.8349 44.9238 46.5455 44.9238ZM53.412 56.0891C52.6814 56.0891 52.0818 55.8755 51.6132 55.4481C51.1583 55.0208 50.9308 54.3385 50.9308 53.4012V46.9915H49.4835V46.1644H50.9308V44.3035L51.9647 43.0629H52.7917V46.1644H55.2729V46.9915H52.7917V53.4012C52.7917 54.0215 52.9089 54.4902 53.1432 54.8072C53.3913 55.1104 53.7566 55.2621 54.2391 55.2621C54.5975 55.2621 54.8938 55.2207 55.1282 55.138C55.3625 55.0553 55.5831 54.9588 55.7898 54.8485L55.9963 55.2621C55.776 55.4275 55.4727 55.6067 55.0868 55.7996C54.7008 55.9924 54.1426 56.0891 53.412 56.0891ZM59.8399 56.0891C59.5504 56.0891 59.2336 56.0411 58.8888 55.9444C58.5579 55.8617 58.2344 55.7101 57.917 55.4895C57.6001 55.2689 57.338 54.9726 57.1313 54.6004C56.9385 54.2282 56.8418 53.7595 56.8418 53.1944C56.8418 52.4363 57.0832 51.8504 57.5655 51.4369C58.0617 51.0234 58.7099 50.7339 59.5091 50.5685C60.3227 50.3893 61.1911 50.2997 62.1143 50.2997H62.7346C62.7346 49.3348 62.6385 48.6042 62.4451 48.108C62.2523 47.598 61.9902 47.2534 61.6594 47.0742C61.3426 46.8812 60.9771 46.7847 60.5636 46.7847C59.9846 46.7847 59.4957 46.9088 59.0955 47.1569C58.7099 47.405 58.4412 47.8668 58.2892 48.5422H57.3587C57.3587 48.1838 57.3794 47.853 57.4207 47.5497C57.4621 47.2327 57.6141 46.9432 57.8756 46.6813C58.1377 46.4194 58.5652 46.2333 59.1576 46.1231C59.7505 46.0128 60.3568 45.9576 60.9771 45.9576C61.4459 45.9576 61.8941 46.0128 62.3211 46.1231C62.7625 46.2333 63.1481 46.4401 63.479 46.7434C63.8237 47.0328 64.0925 47.467 64.2853 48.046C64.4921 48.6111 64.5955 49.3624 64.5955 50.2997V55.8823H63.5617L62.838 54.9519H62.7346C62.5278 55.2138 62.1903 55.4688 61.7214 55.7169C61.2532 55.9651 60.6256 56.0891 59.8399 56.0891ZM60.7703 55.1587C61.2805 55.1587 61.6801 55.0346 61.9696 54.7865C62.273 54.5246 62.5278 54.2351 62.7346 53.9181V51.1268H62.1143C61.0805 51.1268 60.2674 51.3197 59.6745 51.7057C59.0955 52.0779 58.8061 52.5741 58.8061 53.1944C58.8061 53.8699 59.0061 54.3661 59.4057 54.6831C59.8058 55.0001 60.2607 55.1587 60.7703 55.1587Z" fill="#9E721D"/>
</mask>
<g mask="url(#mask0_21_80)">
<path d="M0.181213 19.4134H69.8954V58.8576H0.181213V19.4134Z" fill="url(#paint0_linear_21_80)"/>
</g>
<path d="M0.467712 38.7653C0.467712 30.877 2.31324 21.8537 9.17994 13.8236C12.7096 9.6959 15.6293 7.35303 19.4388 5.18541C25.4009 1.6017 32.805 -0.201737 40.6718 0.333957C40.6718 0.333957 35.5357 0.589861 29.3821 3.20217C23.7878 5.57704 16.577 10.7558 13.2938 16.1334C11.1329 19.6727 9.22744 23.1286 8.10236 26.7113C6.69999 31.1772 6.34838 35.6968 6.34838 39.158C6.34838 45.3959 8.88046 54.447 14.4473 61.1805C18.4835 66.0624 23.387 69.892 28.0464 72.048C34.824 75.183 40.7668 75.4104 40.1278 75.4473C30.657 75.9938 20.1114 72.8828 11.6908 64.6994C4.21893 57.4386 0.467712 47.5715 0.467712 38.7653Z" fill="url(#paint1_linear_21_80)"/>
</g>
<defs>
<linearGradient id="paint0_linear_21_80" x1="55.536" y1="19.4134" x2="55.536" y2="58.8576" gradientUnits="userSpaceOnUse">
<stop stop-color="#E1CF33"/>
<stop offset="1" stop-color="#9E721D"/>
</linearGradient>
<linearGradient id="paint1_linear_21_80" x1="30.0456" y1="0.709757" x2="30.0456" y2="75.3651" gradientUnits="userSpaceOnUse">
<stop stop-color="#E1CF33"/>
<stop offset="1" stop-color="#9E721D"/>
</linearGradient>
<clipPath id="clip0_21_80">
<rect width="76" height="76" fill="white"/>
</clipPath>
</defs>
</svg>
