<svg width="48" height="48" viewBox="0 0 48 48" fill="none" xmlns="http://www.w3.org/2000/svg">
<g clip-path="url(#clip0_21_99)">
<path d="M24.0598 47.7154C37.193 47.7154 47.8396 37.0688 47.8396 23.9355C47.8396 10.8023 37.193 0.155701 24.0598 0.155701C10.9266 0.155701 0.279968 10.8023 0.279968 23.9355C0.279968 37.0688 10.9266 47.7154 24.0598 47.7154Z" fill="white"/>
<mask id="mask0_21_99" style="mask-type:alpha" maskUnits="userSpaceOnUse" x="7" y="15" width="35" height="21">
<path d="M12.2051 24.1306L9.17542 16.9091C8.96648 16.4216 8.76626 16.082 8.57472 15.8905C8.38318 15.6903 8.1046 15.5727 7.73895 15.5379V15.2767C7.77379 15.2767 7.84342 15.2724 7.94789 15.2637C8.04365 15.255 8.122 15.2506 8.18295 15.2506C8.40061 15.2506 8.64435 15.2854 8.91425 15.3551C9.18414 15.4247 9.454 15.5771 9.72389 15.8121C10.0025 16.0472 10.2462 16.4128 10.4552 16.9091L12.6882 22.1718L15.5612 15.3812H16.188L12.4401 24.1306H12.2051ZM18.8442 24.1306C18.2349 24.1306 17.7256 23.987 17.3164 23.6997C16.9159 23.4124 16.6112 23.025 16.4022 22.5374C16.202 22.0499 16.1019 21.5145 16.1019 20.9312C16.1019 20.3392 16.2064 19.8038 16.4153 19.325C16.6242 18.8374 16.9246 18.45 17.3164 18.1627C17.7081 17.8754 18.1739 17.7318 18.7137 17.7318C19.3057 17.7318 19.7932 17.845 20.1762 18.0713C20.568 18.289 20.8553 18.6111 21.0381 19.0377C21.2297 19.4643 21.3254 19.9866 21.3254 20.6047L21.2993 21.1271H17.3425C17.3425 21.841 17.4948 22.433 17.7995 22.9031C18.113 23.3732 18.5483 23.6083 19.1054 23.6083C19.532 23.6083 19.8846 23.5168 20.1632 23.334C20.4505 23.1512 20.7073 22.8944 20.9337 22.5636L21.1948 22.7594C21.0033 23.0902 20.7857 23.3558 20.5419 23.556C20.3068 23.7562 20.0457 23.9043 19.7584 24C19.4798 24.0871 19.1751 24.1306 18.8442 24.1306ZM17.3425 20.6047H20.0848C20.0848 19.8473 19.9717 19.2684 19.7453 18.8679C19.519 18.4587 19.1751 18.2541 18.7137 18.2541C18.4525 18.2541 18.2174 18.3586 18.0085 18.5676C17.8083 18.7678 17.6472 19.0464 17.5253 19.4033C17.4034 19.7516 17.3425 20.152 17.3425 20.6047ZM23.0267 24V19.4294C23.0267 19.0377 22.9702 18.7243 22.857 18.4892C22.7525 18.2454 22.5044 18.1236 22.1126 18.1236H21.8514V17.8624H23.0267C23.3576 17.8624 23.6057 17.9103 23.7711 18.006C23.9452 18.0931 24.0671 18.2193 24.1367 18.3847C24.3109 18.2367 24.5503 18.0931 24.855 17.9538C25.1597 17.8058 25.5079 17.7318 25.8997 17.7318C26.274 17.7318 26.6266 17.7971 26.9574 17.9277C27.297 18.0583 27.5756 18.2933 27.7932 18.6328C28.0109 18.9637 28.1197 19.4468 28.1197 20.0824V24H26.9444V20.0824C26.9444 19.6471 26.8748 19.3032 26.7354 19.0507C26.5962 18.7896 26.4177 18.6024 26.2 18.4892C25.9824 18.376 25.7517 18.3194 25.5079 18.3194C25.2467 18.3194 25.003 18.3891 24.7766 18.5284C24.559 18.6677 24.3675 18.8287 24.202 19.0116V24H23.0267ZM32.1672 24.1306C31.8016 24.1306 31.449 24.0653 31.1094 23.9347C30.7699 23.8041 30.4913 23.5691 30.2737 23.2296C30.056 22.89 29.9472 22.4068 29.9472 21.78V19.4294C29.9472 19.0377 29.8906 18.7243 29.7774 18.4892C29.673 18.2454 29.4249 18.1236 29.0331 18.1236H28.9025V17.8624H29.9472C30.2519 17.8624 30.487 17.9016 30.6524 17.9799C30.8265 18.0583 30.9484 18.2106 31.018 18.437C31.0877 18.6633 31.1225 18.9942 31.1225 19.4294V21.78C31.1225 22.2153 31.1921 22.5636 31.3314 22.8247C31.4708 23.0772 31.6492 23.26 31.8669 23.3732C32.0932 23.4864 32.3239 23.543 32.559 23.543C32.7331 23.543 32.8985 23.5125 33.0552 23.4516C33.2119 23.3819 33.3599 23.2948 33.4992 23.1904C33.6385 23.0859 33.7604 22.9727 33.8649 22.8508V17.8624H35.0402V24H34.3872L33.9302 23.4777H33.8649C33.6994 23.6431 33.4731 23.7954 33.1858 23.9347C32.8985 24.0653 32.559 24.1306 32.1672 24.1306ZM38.9728 24.1306C38.4505 24.1306 38.0241 24.0871 37.6931 24C37.3624 23.9043 37.1142 23.7737 36.9487 23.6083C36.7835 23.4428 36.6875 23.2557 36.6614 23.0467C36.6353 22.8378 36.6222 22.5679 36.6222 22.2371H36.8834C36.9533 22.6637 37.1361 22.9988 37.4319 23.2426C37.728 23.4864 38.1547 23.6083 38.7117 23.6083C39.2079 23.6083 39.5693 23.5212 39.7955 23.3471C40.0306 23.173 40.1481 22.9553 40.1481 22.6941C40.1481 22.433 40.0482 22.2153 39.8478 22.0412C39.6565 21.8584 39.3646 21.6843 38.9728 21.5188L38.1893 21.1924C37.6931 20.9922 37.3059 20.7571 37.0271 20.4872C36.7574 20.2086 36.6222 19.856 36.6222 19.4294C36.6222 18.881 36.827 18.4631 37.236 18.1758C37.6454 17.8798 38.159 17.7318 38.777 17.7318C39.2732 17.7318 39.6826 17.7797 40.0045 17.8754C40.3267 17.9625 40.5706 18.0887 40.7358 18.2541C40.9013 18.4196 40.997 18.6067 41.0231 18.8157C41.0492 19.0246 41.0622 19.2945 41.0622 19.6253H40.8011C40.7315 19.1987 40.5487 18.8636 40.2526 18.6198C39.9653 18.376 39.5605 18.2541 39.0381 18.2541C38.6118 18.2541 38.2853 18.3412 38.0587 18.5153C37.8413 18.6894 37.7322 18.9071 37.7322 19.1683C37.7322 19.3946 37.8237 19.6035 38.0065 19.7951C38.1893 19.9779 38.4462 20.139 38.777 20.2783L39.5605 20.6047C40.1178 20.8311 40.5399 21.0792 40.8272 21.3491C41.1145 21.619 41.2581 21.9802 41.2581 22.433C41.2581 22.9814 41.0407 23.4037 40.6052 23.6997C40.17 23.987 39.6258 24.1306 38.9728 24.1306Z" fill="#9E721D"/>
<path d="M23.4992 35.4247L20.4696 28.2032C20.2606 27.7157 20.0604 27.3762 19.8688 27.1846C19.6773 26.9844 19.3987 26.8669 19.0331 26.832V26.5709C19.0679 26.5709 19.1376 26.5665 19.242 26.5578C19.3378 26.5491 19.4161 26.5447 19.4771 26.5447C19.6947 26.5447 19.9385 26.5796 20.2084 26.6492C20.4783 26.7188 20.7481 26.8712 21.018 27.1063C21.2966 27.3413 21.5404 27.707 21.7493 28.2032L23.9824 33.4659L26.8553 26.6753H27.4821L23.7343 35.4247H23.4992ZM28.901 35.2942V30.7236C28.901 30.3318 28.8444 30.0184 28.7312 29.7833C28.6267 29.5396 28.3786 29.4177 27.9868 29.4177H27.7257V29.1565H28.901C29.2057 29.1565 29.4407 29.1957 29.6061 29.274C29.7802 29.3524 29.9022 29.5048 29.9718 29.7311C30.0414 29.9574 30.0763 30.2883 30.0763 30.7236V35.2942H28.901ZM29.3972 28.373C29.197 28.373 29.0228 28.2903 28.8748 28.1249C28.7355 27.9594 28.6659 27.7636 28.6659 27.5372C28.6659 27.3544 28.7181 27.2107 28.8226 27.1063C28.9358 27.0018 29.0838 26.9496 29.2666 26.9496C29.4668 26.9496 29.6366 27.0323 29.7759 27.1977C29.9239 27.3631 29.9979 27.559 29.9979 27.7853C29.9979 27.9682 29.9413 28.1118 29.8281 28.2163C29.7237 28.3207 29.58 28.373 29.3972 28.373ZM33.734 35.4247C33.2725 35.4247 32.8938 35.2898 32.5978 35.0199C32.3106 34.75 32.1669 34.3191 32.1669 33.7271V29.6789H31.2528V29.1565H32.1669V27.9812L32.8198 27.1977H33.3422V29.1565H34.9093V29.6789H33.3422V33.7271C33.3422 34.1189 33.4162 34.4149 33.5642 34.6151C33.7209 34.8066 33.9516 34.9024 34.2563 34.9024C34.4827 34.9024 34.6698 34.8763 34.8178 34.824C34.9658 34.7718 35.1051 34.7108 35.2357 34.6412L35.3661 34.9024C35.227 35.0069 35.0355 35.12 34.7917 35.2419C34.548 35.3637 34.1954 35.4247 33.734 35.4247ZM37.7937 35.4247C37.6108 35.4247 37.4107 35.3944 37.193 35.3333C36.984 35.2811 36.7797 35.1853 36.5792 35.046C36.3791 34.9067 36.2136 34.7196 36.083 34.4845C35.9612 34.2494 35.9001 33.9534 35.9001 33.5965C35.9001 33.1177 36.0526 32.7477 36.3572 32.4865C36.6706 32.2253 37.08 32.0425 37.5847 31.938C38.0986 31.8248 38.6471 31.7683 39.2301 31.7683H39.6219C39.6219 31.1588 39.5612 30.6974 39.4391 30.384C39.3173 30.0619 39.1518 29.8443 38.9428 29.7311C38.7427 29.6092 38.5119 29.5483 38.2507 29.5483C37.8851 29.5483 37.5763 29.6266 37.3236 29.7833C37.08 29.94 36.9103 30.2317 36.8143 30.6583H36.2266C36.2266 30.4319 36.2397 30.223 36.2658 30.0314C36.2919 29.8312 36.3879 29.6484 36.5531 29.483C36.7186 29.3176 36.9886 29.2 37.3627 29.1304C37.7372 29.0608 38.1201 29.0259 38.5119 29.0259C38.808 29.0259 39.0911 29.0608 39.3607 29.1304C39.6396 29.2 39.8831 29.3306 40.092 29.5222C40.3098 29.705 40.4796 29.9792 40.6013 30.3449C40.7319 30.7018 40.7972 31.1763 40.7972 31.7683V35.2942H40.1443L39.6872 34.7065H39.6219C39.4913 34.8719 39.2781 35.033 38.982 35.1897C38.6863 35.3464 38.2899 35.4247 37.7937 35.4247ZM38.3813 34.8371C38.7036 34.8371 38.9559 34.7587 39.1387 34.602C39.3304 34.4366 39.4913 34.2538 39.6219 34.0536V32.2906H39.2301C38.5772 32.2906 38.0637 32.4125 37.6892 32.6563C37.3236 32.8913 37.1407 33.2047 37.1407 33.5965C37.1407 34.0231 37.2671 34.3365 37.5194 34.5367C37.7721 34.737 38.0594 34.8371 38.3813 34.8371Z" fill="#9E721D"/>
</mask>
<g mask="url(#mask0_21_99)">
<path d="M0.114502 12.2611H44.1445V37.1732H0.114502V12.2611Z" fill="url(#paint0_linear_21_99)"/>
</g>
<path d="M0.29541 24.4833C0.29541 19.5013 1.461 13.8024 5.79787 8.73074C8.02715 6.12374 9.87113 4.64403 12.2771 3.27501C16.0427 1.01161 20.719 -0.127397 25.6875 0.210936C25.6875 0.210936 22.4436 0.37256 18.5571 2.02244C15.0239 3.52236 10.4697 6.79316 8.39611 10.1895C7.03133 12.4249 5.82787 14.6076 5.11729 16.8703C4.23159 19.6909 4.00952 22.5453 4.00952 24.7314C4.00952 28.6711 5.60873 34.3876 9.12462 38.6403C11.6738 41.7236 14.7708 44.1423 17.7136 45.504C21.9941 47.484 25.7475 47.6276 25.3439 47.6509C19.3623 47.9961 12.7019 46.0313 7.3837 40.8628C2.6646 36.2771 0.29541 30.0452 0.29541 24.4833Z" fill="url(#paint1_linear_21_99)"/>
</g>
<defs>
<linearGradient id="paint0_linear_21_99" x1="35.0755" y1="12.2611" x2="35.0755" y2="37.1732" gradientUnits="userSpaceOnUse">
<stop stop-color="#E1CF33"/>
<stop offset="1" stop-color="#9E721D"/>
</linearGradient>
<linearGradient id="paint1_linear_21_99" x1="18.9762" y1="0.448283" x2="18.9762" y2="47.5991" gradientUnits="userSpaceOnUse">
<stop stop-color="#E1CF33"/>
<stop offset="1" stop-color="#9E721D"/>
</linearGradient>
<clipPath id="clip0_21_99">
<rect width="48" height="48" fill="white"/>
</clipPath>
</defs>
</svg>
