<svg width="136" height="136" viewBox="0 0 136 136" fill="none" xmlns="http://www.w3.org/2000/svg">
<circle cx="68.1694" cy="67.8173" r="67.3762" fill="white"/>
<mask id="mask0_11_1177" style="mask-type:alpha" maskUnits="userSpaceOnUse" x="21" y="30" width="98" height="90">
<path d="M34.581 68.37L25.997 47.909C25.405 46.5277 24.8377 45.5657 24.295 45.023C23.7523 44.4557 22.963 44.1227 21.927 44.024V43.284C22.0257 43.284 22.223 43.2717 22.519 43.247C22.7903 43.2223 23.0123 43.21 23.185 43.21C23.8017 43.21 24.4923 43.3087 25.257 43.506C26.0217 43.7033 26.7863 44.135 27.551 44.801C28.3403 45.467 29.031 46.503 29.623 47.909L35.95 62.82L44.09 43.58H45.866L35.247 68.37H34.581ZM53.392 68.37C51.6654 68.37 50.2224 67.963 49.063 67.149C47.9284 66.335 47.065 65.2373 46.473 63.856C45.9057 62.4747 45.622 60.9577 45.622 59.305C45.622 57.6277 45.918 56.1107 46.51 54.754C47.102 53.3727 47.953 52.275 49.063 51.461C50.173 50.647 51.4927 50.24 53.022 50.24C54.6994 50.24 56.0807 50.5607 57.166 51.202C58.276 51.8187 59.09 52.7313 59.608 53.94C60.1507 55.1487 60.422 56.6287 60.422 58.38L60.348 59.86H49.137C49.137 61.8827 49.5687 63.56 50.432 64.892C51.32 66.224 52.5534 66.89 54.132 66.89C55.3407 66.89 56.3397 66.631 57.129 66.113C57.943 65.595 58.6707 64.8673 59.312 63.93L60.052 64.485C59.5094 65.4223 58.8927 66.1747 58.202 66.742C57.536 67.3093 56.796 67.7287 55.982 68C55.1927 68.2467 54.3294 68.37 53.392 68.37ZM49.137 58.38H56.907C56.907 56.234 56.5864 54.5937 55.945 53.459C55.3037 52.2997 54.3294 51.72 53.022 51.72C52.282 51.72 51.616 52.016 51.024 52.608C50.4567 53.1753 50.0004 53.9647 49.655 54.976C49.3097 55.9627 49.137 57.0973 49.137 58.38ZM65.2424 68V55.05C65.2424 53.94 65.0821 53.052 64.7614 52.386C64.4654 51.6953 63.7624 51.35 62.6524 51.35H61.9124V50.61H65.2424C66.1798 50.61 66.8828 50.7457 67.3514 51.017C67.8448 51.2637 68.1901 51.6213 68.3874 52.09C68.8808 51.6707 69.5591 51.2637 70.4224 50.869C71.2858 50.4497 72.2724 50.24 73.3824 50.24C74.4431 50.24 75.4421 50.425 76.3794 50.795C77.3414 51.165 78.1308 51.831 78.7474 52.793C79.3641 53.7303 79.6724 55.0993 79.6724 56.9V68H76.3424V56.9C76.3424 55.6667 76.1451 54.6923 75.7504 53.977C75.3558 53.237 74.8501 52.7067 74.2334 52.386C73.6168 52.0653 72.9631 51.905 72.2724 51.905C71.5324 51.905 70.8418 52.1023 70.2004 52.497C69.5838 52.8917 69.0411 53.348 68.5724 53.866V68H65.2424ZM91.1404 68.37C90.1044 68.37 89.1054 68.185 88.1434 67.815C87.1814 67.445 86.3921 66.779 85.7754 65.817C85.1587 64.855 84.8504 63.486 84.8504 61.71V55.05C84.8504 53.94 84.6901 53.052 84.3694 52.386C84.0734 51.6953 83.3704 51.35 82.2604 51.35H81.8904V50.61H84.8504C85.7137 50.61 86.3797 50.721 86.8484 50.943C87.3417 51.165 87.6871 51.5967 87.8844 52.238C88.0817 52.8793 88.1804 53.8167 88.1804 55.05V61.71C88.1804 62.9433 88.3777 63.93 88.7724 64.67C89.1671 65.3853 89.6727 65.9033 90.2894 66.224C90.9307 66.5447 91.5844 66.705 92.2504 66.705C92.7437 66.705 93.2124 66.6187 93.6564 66.446C94.1004 66.2487 94.5197 66.002 94.9144 65.706C95.3091 65.41 95.6544 65.0893 95.9504 64.744V50.61H99.2804V68H97.4304L96.1354 66.52H95.9504C95.4817 66.9887 94.8404 67.4203 94.0264 67.815C93.2124 68.185 92.2504 68.37 91.1404 68.37ZM110.423 68.37C108.943 68.37 107.735 68.2467 106.797 68C105.86 67.7287 105.157 67.3587 104.688 66.89C104.22 66.4213 103.948 65.891 103.874 65.299C103.8 64.707 103.763 63.9423 103.763 63.005H104.503C104.701 64.2137 105.219 65.1633 106.057 65.854C106.896 66.5447 108.105 66.89 109.683 66.89C111.089 66.89 112.113 66.6433 112.754 66.15C113.42 65.6567 113.753 65.04 113.753 64.3C113.753 63.56 113.47 62.9433 112.902 62.45C112.36 61.932 111.533 61.4387 110.423 60.97L108.203 60.045C106.797 59.4777 105.7 58.8117 104.91 58.047C104.146 57.2577 103.763 56.2587 103.763 55.05C103.763 53.496 104.343 52.312 105.502 51.498C106.662 50.6593 108.117 50.24 109.868 50.24C111.274 50.24 112.434 50.3757 113.346 50.647C114.259 50.8937 114.95 51.2513 115.418 51.72C115.887 52.1887 116.158 52.719 116.232 53.311C116.306 53.903 116.343 54.6677 116.343 55.605H115.603C115.406 54.3963 114.888 53.4467 114.049 52.756C113.235 52.0653 112.088 51.72 110.608 51.72C109.4 51.72 108.475 51.9667 107.833 52.46C107.217 52.9533 106.908 53.57 106.908 54.31C106.908 54.9513 107.167 55.5433 107.685 56.086C108.203 56.604 108.931 57.0603 109.868 57.455L112.088 58.38C113.667 59.0213 114.863 59.7243 115.677 60.489C116.491 61.2537 116.898 62.2773 116.898 63.56C116.898 65.114 116.282 66.3103 115.048 67.149C113.815 67.963 112.273 68.37 110.423 68.37Z" fill="#9E721D"/>
<path d="M66.581 100.37L57.997 79.909C57.405 78.5277 56.8377 77.5657 56.295 77.023C55.7523 76.4557 54.963 76.1227 53.927 76.024V75.284C54.0257 75.284 54.223 75.2717 54.519 75.247C54.7903 75.2223 55.0123 75.21 55.185 75.21C55.8017 75.21 56.4923 75.3087 57.257 75.506C58.0217 75.7033 58.7863 76.135 59.551 76.801C60.3403 77.467 61.031 78.503 61.623 79.909L67.95 94.82L76.09 75.58H77.866L67.247 100.37H66.581ZM81.886 100V87.05C81.886 85.94 81.7257 85.052 81.405 84.386C81.109 83.6953 80.406 83.35 79.296 83.35H78.556V82.61H81.886C82.7493 82.61 83.4153 82.721 83.884 82.943C84.3773 83.165 84.7227 83.5967 84.92 84.238C85.1173 84.8793 85.216 85.8167 85.216 87.05V100H81.886ZM83.292 80.39C82.7247 80.39 82.2313 80.1557 81.812 79.687C81.4173 79.2183 81.22 78.6633 81.22 78.022C81.22 77.504 81.368 77.097 81.664 76.801C81.9847 76.505 82.404 76.357 82.922 76.357C83.4893 76.357 83.9703 76.5913 84.365 77.06C84.7843 77.5287 84.994 78.0837 84.994 78.725C84.994 79.243 84.8337 79.65 84.513 79.946C84.217 80.242 83.81 80.39 83.292 80.39ZM95.5795 100.37C94.2721 100.37 93.1991 99.9877 92.3605 99.223C91.5465 98.4583 91.1395 97.2373 91.1395 95.56V84.09H88.5495V82.61H91.1395V79.28L92.9895 77.06H94.4695V82.61H98.9095V84.09H94.4695V95.56C94.4695 96.67 94.6791 97.5087 95.0985 98.076C95.5425 98.6187 96.1961 98.89 97.0595 98.89C97.7008 98.89 98.2311 98.816 98.6505 98.668C99.0698 98.52 99.4645 98.3473 99.8345 98.15L100.204 98.89C99.8098 99.186 99.2671 99.5067 98.5765 99.852C97.8858 100.197 96.8868 100.37 95.5795 100.37ZM107.082 100.37C106.564 100.37 105.997 100.284 105.38 100.111C104.788 99.963 104.209 99.6917 103.641 99.297C103.074 98.9023 102.605 98.372 102.235 97.706C101.89 97.04 101.717 96.2013 101.717 95.19C101.717 93.8333 102.149 92.785 103.012 92.045C103.9 91.305 105.06 90.787 106.49 90.491C107.946 90.1703 109.5 90.01 111.152 90.01H112.262C112.262 88.2833 112.09 86.976 111.744 86.088C111.399 85.1753 110.93 84.5587 110.338 84.238C109.771 83.8927 109.117 83.72 108.377 83.72C107.341 83.72 106.466 83.942 105.75 84.386C105.06 84.83 104.579 85.6563 104.307 86.865H102.642C102.642 86.2237 102.679 85.6317 102.753 85.089C102.827 84.5217 103.099 84.0037 103.567 83.535C104.036 83.0663 104.801 82.7333 105.861 82.536C106.922 82.3387 108.007 82.24 109.117 82.24C109.956 82.24 110.758 82.3387 111.522 82.536C112.312 82.7333 113.002 83.1033 113.594 83.646C114.211 84.164 114.692 84.941 115.037 85.977C115.407 86.9883 115.592 88.3327 115.592 90.01V100H113.742L112.447 98.335H112.262C111.892 98.8037 111.288 99.26 110.449 99.704C109.611 100.148 108.488 100.37 107.082 100.37ZM108.747 98.705C109.66 98.705 110.375 98.483 110.893 98.039C111.436 97.5703 111.892 97.0523 112.262 96.485V91.49H111.152C109.302 91.49 107.847 91.8353 106.786 92.526C105.75 93.192 105.232 94.08 105.232 95.19C105.232 96.3987 105.59 97.2867 106.305 97.854C107.021 98.4213 107.835 98.705 108.747 98.705Z" fill="#9E721D"/>
</mask>
<g mask="url(#mask0_11_1177)">
<path d="M0.324368 34.7397H125.076V105.324H0.324368V34.7397Z" fill="url(#paint0_linear_11_1177)"/>
</g>
<path d="M0.837002 69.3695C0.837002 55.2537 4.13952 39.1067 16.4273 24.7371C22.7436 17.3506 27.9682 13.1581 34.7852 9.27921C45.4543 2.86624 58.7038 -0.360954 72.7812 0.597656C72.7812 0.597656 63.5902 1.05559 52.5785 5.73025C42.5677 9.98002 29.6642 19.2473 23.789 28.8703C19.9221 35.2039 16.5123 41.3881 14.499 47.7993C11.9895 55.7908 11.3603 63.8785 11.3603 70.0722C11.3603 81.2348 15.8914 97.4316 25.8531 109.481C33.0758 118.217 41.8505 125.07 50.1884 128.928C62.3167 134.538 72.9512 134.945 71.8077 135.011C54.8599 135.989 35.9888 130.422 20.9205 115.778C7.54971 102.785 0.837002 85.128 0.837002 69.3695Z" fill="url(#paint1_linear_11_1177)"/>
<defs>
<linearGradient id="paint0_linear_11_1177" x1="99.3804" y1="34.7397" x2="99.3804" y2="105.324" gradientUnits="userSpaceOnUse">
<stop stop-color="#E1CF33"/>
<stop offset="1" stop-color="#9E721D"/>
</linearGradient>
<linearGradient id="paint1_linear_11_1177" x1="53.7659" y1="1.27014" x2="53.7659" y2="134.864" gradientUnits="userSpaceOnUse">
<stop stop-color="#E1CF33"/>
<stop offset="1" stop-color="#9E721D"/>
</linearGradient>
</defs>
</svg>
