<svg width="40" height="40" viewBox="0 0 40 40" fill="none" xmlns="http://www.w3.org/2000/svg">
<path fill-rule="evenodd" clip-rule="evenodd" d="M5 11.25C5 10.5596 5.55964 10 6.25 10H33.75C34.4404 10 35 10.5596 35 11.25C35 11.9404 34.4404 12.5 33.75 12.5H6.25C5.55964 12.5 5 11.9404 5 11.25ZM5 20C5 19.3096 5.55964 18.75 6.25 18.75H33.75C34.4404 18.75 35 19.3096 35 20C35 20.6904 34.4404 21.25 33.75 21.25H6.25C5.55964 21.25 5 20.6904 5 20ZM5 28.75C5 28.0596 5.55964 27.5 6.25 27.5H33.75C34.4404 27.5 35 28.0596 35 28.75C35 29.4404 34.4404 30 33.75 30H6.25C5.55964 30 5 29.4404 5 28.75Z" fill="#15343A"/>
</svg>
